<svg id="Capa_1" data-name="Capa 1" xmlns="http://www.w3.org/2000/svg" viewBox="0 0 800 800.38"><defs><style>.cls-1{fill:#fff;}</style></defs><path d="M685,393c69.27-38.27,115-104.23,115-179.2C800,103.12,700.26,12,572.31.79L119.7-.38,1.63,797.23l579.07-3C705.14,776.73,800,685.69,800,576,800,499.93,754.4,432.84,685,393Z" transform="translate(0 0.38)"/><path class="cls-1" d="M156.92,800c23.89-91.51,132.83-162,153.85-162,27.84,0-12.66,74.84-12.66,74.84,58.22-34.55,29.36-118,29.36-118,19.24,46.06,99.73,8.64,54.17,15s-43-89.81,0-101.32,217.68-77.71,249.57-86.35,23.79-72,39-97.86-26.83-63.33-26.83-63.33H558.82c-125.29,1.44-110.11-59-125.29-79.15s-151.87-43.18-151.87-43.18,38-11.51,2.53-23S252.55,1.87,252.55,1.87s-25.31,63.32-58.22,123.77C171.52,167.54,81.51,247.83,81.51,247.83L0,800Z" transform="translate(0 0.38)"/><path class="cls-1" d="M440.84,279.3s12.66-80.59-93.65-95c0,0-54.2-.38-30.9-30.41,0,0-24.79-15.65-12.13-21.4s-30.67-2.1-36.85-25.52C261.75,85.91,253,39.5,270.69,0H246.17c-13.11,18.24-30,54.71-50.2,125.41,0,0-33.55,41.64-53.8,38.76,0,0,8.78,8.32,15.79,11.24-14.92,5-48,20.12-67.92,32.28l-2.35,16.5c17.2-2.69,43.46-11.54,36.62-3.16-8.27,10.12-30.49,11.86-37.9,12.16l-5,35.11c18.48,8.9,39,22.25,41.28,38.43,4.3,30.14,154.65,99.22,51.63,259,0,0,71.63-7.19,81.76-30.22,0,0-20.25,77.71,38,95,6.93,2-73.4-60.45,134.15-164.07,0,0,53.16-72,50.63-149.68C478.81,316.72,486.4,302.33,440.84,279.3Z" transform="translate(0 0.38)"/><path d="M66.28,374.43q106.8-34.93,213.26-70.73C305,295.17,316.6,272.53,308,250.93S274.33,218.46,249,226.71q-84.93,27.72-169.66,56Z" transform="translate(0 0.38)"/><path d="M230.35,405.09c-12.17-14.21-31.92-19.45-52.21-12.91-36.85,11.89-73.51,24.26-110.24,36.44q-4.89,1.62-9.8,3.2L45.05,523.33c54.6-17.91,109.25-35.7,163.5-54.43,9.08-3.14,17.95-9.82,23.81-17C243.77,438,241.9,418.59,230.35,405.09Z" transform="translate(0 0.38)"/><path d="M311,535.9c-9.38-23.89-34.7-33.28-63.75-23.66q-69.77,23.1-139.53,46.18c-24.2,8-48.48,15.87-72.62,24l-12.4,87a68.78,68.78,0,0,0,8.21.42c3.21-.76,10.2-1.89,16.78-4.06q115.65-38.14,231.2-76.6C306.56,580,319.7,558,311,535.9Z" transform="translate(0 0.38)"/></svg>